<?xml version="1.0" encoding="utf-8" standalone="no"?>
<!DOCTYPE svg PUBLIC "-//W3C//DTD SVG 1.1//EN"
  "http://www.w3.org/Graphics/SVG/1.1/DTD/svg11.dtd">
<svg xmlns:xlink="http://www.w3.org/1999/xlink" width="728.348278pt" height="440.39952pt" viewBox="0 0 728.348278 440.39952" xmlns="http://www.w3.org/2000/svg" version="1.1">
 <metadata>
  <rdf:RDF xmlns:dc="http://purl.org/dc/elements/1.1/" xmlns:cc="http://creativecommons.org/ns#" xmlns:rdf="http://www.w3.org/1999/02/22-rdf-syntax-ns#">
   <cc:Work>
    <dc:type rdf:resource="http://purl.org/dc/dcmitype/StillImage"/>
    <dc:date>2026-05-21T21:18:19.555693</dc:date>
    <dc:format>image/svg+xml</dc:format>
    <dc:creator>
     <cc:Agent>
      <dc:title>Matplotlib v3.10.8, https://matplotlib.org/</dc:title>
     </cc:Agent>
    </dc:creator>
   </cc:Work>
  </rdf:RDF>
 </metadata>
 <defs>
  <style type="text/css">*{stroke-linejoin: round; stroke-linecap: butt}</style>
 </defs>
 <g id="figure_1">
  <g id="patch_1">
   <path d="M 0 440.39952 
L 728.348278 440.39952 
L 728.348278 0 
L 0 0 
z
" style="fill: #ffffff"/>
  </g>
  <g id="axes_1">
   <g id="patch_2">
    <path d="M 47.609375 390.536395 
L 711.128659 390.536395 
L 711.128659 51.916562 
L 47.609375 51.916562 
z
" style="fill: #ffffff"/>
   </g>
   <g id="matplotlib.axis_1">
    <g id="xtick_1">
     <g id="line2d_1"/>
     <g id="text_1">
      <!-- p0 -->
      <g transform="translate(39.982813 403.15452) scale(0.12 -0.12)">
       <defs>
        <path id="DejaVuSans-70" d="M 1159 525 
L 1159 -1331 
L 581 -1331 
L 581 3500 
L 1159 3500 
L 1159 2969 
Q 1341 3281 1617 3432 
Q 1894 3584 2278 3584 
Q 2916 3584 3314 3078 
Q 3713 2572 3713 1747 
Q 3713 922 3314 415 
Q 2916 -91 2278 -91 
Q 1894 -91 1617 61 
Q 1341 213 1159 525 
z
M 3116 1747 
Q 3116 2381 2855 2742 
Q 2594 3103 2138 3103 
Q 1681 3103 1420 2742 
Q 1159 2381 1159 1747 
Q 1159 1113 1420 752 
Q 1681 391 2138 391 
Q 2594 391 2855 752 
Q 3116 1113 3116 1747 
z
" transform="scale(0.015625)"/>
        <path id="DejaVuSans-30" d="M 2034 4250 
Q 1547 4250 1301 3770 
Q 1056 3291 1056 2328 
Q 1056 1369 1301 889 
Q 1547 409 2034 409 
Q 2525 409 2770 889 
Q 3016 1369 3016 2328 
Q 3016 3291 2770 3770 
Q 2525 4250 2034 4250 
z
M 2034 4750 
Q 2819 4750 3233 4129 
Q 3647 3509 3647 2328 
Q 3647 1150 3233 529 
Q 2819 -91 2034 -91 
Q 1250 -91 836 529 
Q 422 1150 422 2328 
Q 422 3509 836 4129 
Q 1250 4750 2034 4750 
z
" transform="scale(0.015625)"/>
       </defs>
       <use xlink:href="#DejaVuSans-70"/>
       <use xlink:href="#DejaVuSans-30" transform="translate(63.476562 0)"/>
      </g>
     </g>
    </g>
    <g id="xtick_2">
     <g id="line2d_2"/>
     <g id="text_2">
      <!-- p50 -->
      <g transform="translate(75.223079 403.15452) scale(0.12 -0.12)">
       <defs>
        <path id="DejaVuSans-35" d="M 691 4666 
L 3169 4666 
L 3169 4134 
L 1269 4134 
L 1269 2991 
Q 1406 3038 1543 3061 
Q 1681 3084 1819 3084 
Q 2600 3084 3056 2656 
Q 3513 2228 3513 1497 
Q 3513 744 3044 326 
Q 2575 -91 1722 -91 
Q 1428 -91 1123 -41 
Q 819 9 494 109 
L 494 744 
Q 775 591 1075 516 
Q 1375 441 1709 441 
Q 2250 441 2565 725 
Q 2881 1009 2881 1497 
Q 2881 1984 2565 2268 
Q 2250 2553 1709 2553 
Q 1456 2553 1204 2497 
Q 953 2441 691 2322 
L 691 4666 
z
" transform="scale(0.015625)"/>
       </defs>
       <use xlink:href="#DejaVuSans-70"/>
       <use xlink:href="#DejaVuSans-35" transform="translate(63.476562 0)"/>
       <use xlink:href="#DejaVuSans-30" transform="translate(127.099609 0)"/>
      </g>
     </g>
    </g>
    <g id="xtick_3">
     <g id="line2d_3"/>
     <g id="text_3">
      <!-- p90 -->
      <g transform="translate(165.912406 403.15452) scale(0.12 -0.12)">
       <defs>
        <path id="DejaVuSans-39" d="M 703 97 
L 703 672 
Q 941 559 1184 500 
Q 1428 441 1663 441 
Q 2288 441 2617 861 
Q 2947 1281 2994 2138 
Q 2813 1869 2534 1725 
Q 2256 1581 1919 1581 
Q 1219 1581 811 2004 
Q 403 2428 403 3163 
Q 403 3881 828 4315 
Q 1253 4750 1959 4750 
Q 2769 4750 3195 4129 
Q 3622 3509 3622 2328 
Q 3622 1225 3098 567 
Q 2575 -91 1691 -91 
Q 1453 -91 1209 -44 
Q 966 3 703 97 
z
M 1959 2075 
Q 2384 2075 2632 2365 
Q 2881 2656 2881 3163 
Q 2881 3666 2632 3958 
Q 2384 4250 1959 4250 
Q 1534 4250 1286 3958 
Q 1038 3666 1038 3163 
Q 1038 2656 1286 2365 
Q 1534 2075 1959 2075 
z
" transform="scale(0.015625)"/>
       </defs>
       <use xlink:href="#DejaVuSans-70"/>
       <use xlink:href="#DejaVuSans-39" transform="translate(63.476562 0)"/>
       <use xlink:href="#DejaVuSans-30" transform="translate(127.099609 0)"/>
      </g>
     </g>
    </g>
    <g id="xtick_4">
     <g id="line2d_4"/>
     <g id="text_4">
      <!-- p99 -->
      <g transform="translate(295.659499 403.15452) scale(0.12 -0.12)">
       <use xlink:href="#DejaVuSans-70"/>
       <use xlink:href="#DejaVuSans-39" transform="translate(63.476562 0)"/>
       <use xlink:href="#DejaVuSans-39" transform="translate(127.099609 0)"/>
      </g>
     </g>
    </g>
    <g id="xtick_5">
     <g id="line2d_5"/>
     <g id="text_5">
      <!-- p99.9 -->
      <g transform="translate(419.682217 403.15452) scale(0.12 -0.12)">
       <defs>
        <path id="DejaVuSans-2e" d="M 684 794 
L 1344 794 
L 1344 0 
L 684 0 
L 684 794 
z
" transform="scale(0.015625)"/>
       </defs>
       <use xlink:href="#DejaVuSans-70"/>
       <use xlink:href="#DejaVuSans-39" transform="translate(63.476562 0)"/>
       <use xlink:href="#DejaVuSans-39" transform="translate(127.099609 0)"/>
       <use xlink:href="#DejaVuSans-2e" transform="translate(190.722656 0)"/>
       <use xlink:href="#DejaVuSans-39" transform="translate(222.509766 0)"/>
      </g>
     </g>
    </g>
    <g id="xtick_6">
     <g id="line2d_6"/>
     <g id="text_6">
      <!-- p99.99 -->
      <g transform="translate(545.61181 403.15452) scale(0.12 -0.12)">
       <use xlink:href="#DejaVuSans-70"/>
       <use xlink:href="#DejaVuSans-39" transform="translate(63.476562 0)"/>
       <use xlink:href="#DejaVuSans-39" transform="translate(127.099609 0)"/>
       <use xlink:href="#DejaVuSans-2e" transform="translate(190.722656 0)"/>
       <use xlink:href="#DejaVuSans-39" transform="translate(222.509766 0)"/>
       <use xlink:href="#DejaVuSans-39" transform="translate(286.132812 0)"/>
      </g>
     </g>
    </g>
    <g id="xtick_7">
     <g id="line2d_7"/>
     <g id="text_7">
      <!-- p99.999 -->
      <g transform="translate(671.541403 403.15452) scale(0.12 -0.12)">
       <use xlink:href="#DejaVuSans-70"/>
       <use xlink:href="#DejaVuSans-39" transform="translate(63.476562 0)"/>
       <use xlink:href="#DejaVuSans-39" transform="translate(127.099609 0)"/>
       <use xlink:href="#DejaVuSans-2e" transform="translate(190.722656 0)"/>
       <use xlink:href="#DejaVuSans-39" transform="translate(222.509766 0)"/>
       <use xlink:href="#DejaVuSans-39" transform="translate(286.132812 0)"/>
       <use xlink:href="#DejaVuSans-39" transform="translate(349.755859 0)"/>
      </g>
     </g>
    </g>
    <g id="text_8">
     <!-- Percentile -->
     <g transform="translate(344.841517 430.287957) scale(0.14 -0.14)">
      <defs>
       <path id="DejaVuSans-50" d="M 1259 4147 
L 1259 2394 
L 2053 2394 
Q 2494 2394 2734 2622 
Q 2975 2850 2975 3272 
Q 2975 3691 2734 3919 
Q 2494 4147 2053 4147 
L 1259 4147 
z
M 628 4666 
L 2053 4666 
Q 2838 4666 3239 4311 
Q 3641 3956 3641 3272 
Q 3641 2581 3239 2228 
Q 2838 1875 2053 1875 
L 1259 1875 
L 1259 0 
L 628 0 
L 628 4666 
z
" transform="scale(0.015625)"/>
       <path id="DejaVuSans-65" d="M 3597 1894 
L 3597 1613 
L 953 1613 
Q 991 1019 1311 708 
Q 1631 397 2203 397 
Q 2534 397 2845 478 
Q 3156 559 3463 722 
L 3463 178 
Q 3153 47 2828 -22 
Q 2503 -91 2169 -91 
Q 1331 -91 842 396 
Q 353 884 353 1716 
Q 353 2575 817 3079 
Q 1281 3584 2069 3584 
Q 2775 3584 3186 3129 
Q 3597 2675 3597 1894 
z
M 3022 2063 
Q 3016 2534 2758 2815 
Q 2500 3097 2075 3097 
Q 1594 3097 1305 2825 
Q 1016 2553 972 2059 
L 3022 2063 
z
" transform="scale(0.015625)"/>
       <path id="DejaVuSans-72" d="M 2631 2963 
Q 2534 3019 2420 3045 
Q 2306 3072 2169 3072 
Q 1681 3072 1420 2755 
Q 1159 2438 1159 1844 
L 1159 0 
L 581 0 
L 581 3500 
L 1159 3500 
L 1159 2956 
Q 1341 3275 1631 3429 
Q 1922 3584 2338 3584 
Q 2397 3584 2469 3576 
Q 2541 3569 2628 3553 
L 2631 2963 
z
" transform="scale(0.015625)"/>
       <path id="DejaVuSans-63" d="M 3122 3366 
L 3122 2828 
Q 2878 2963 2633 3030 
Q 2388 3097 2138 3097 
Q 1578 3097 1268 2742 
Q 959 2388 959 1747 
Q 959 1106 1268 751 
Q 1578 397 2138 397 
Q 2388 397 2633 464 
Q 2878 531 3122 666 
L 3122 134 
Q 2881 22 2623 -34 
Q 2366 -91 2075 -91 
Q 1284 -91 818 406 
Q 353 903 353 1747 
Q 353 2603 823 3093 
Q 1294 3584 2113 3584 
Q 2378 3584 2631 3529 
Q 2884 3475 3122 3366 
z
" transform="scale(0.015625)"/>
       <path id="DejaVuSans-6e" d="M 3513 2113 
L 3513 0 
L 2938 0 
L 2938 2094 
Q 2938 2591 2744 2837 
Q 2550 3084 2163 3084 
Q 1697 3084 1428 2787 
Q 1159 2491 1159 1978 
L 1159 0 
L 581 0 
L 581 3500 
L 1159 3500 
L 1159 2956 
Q 1366 3272 1645 3428 
Q 1925 3584 2291 3584 
Q 2894 3584 3203 3211 
Q 3513 2838 3513 2113 
z
" transform="scale(0.015625)"/>
       <path id="DejaVuSans-74" d="M 1172 4494 
L 1172 3500 
L 2356 3500 
L 2356 3053 
L 1172 3053 
L 1172 1153 
Q 1172 725 1289 603 
Q 1406 481 1766 481 
L 2356 481 
L 2356 0 
L 1766 0 
Q 1100 0 847 248 
Q 594 497 594 1153 
L 594 3053 
L 172 3053 
L 172 3500 
L 594 3500 
L 594 4494 
L 1172 4494 
z
" transform="scale(0.015625)"/>
       <path id="DejaVuSans-69" d="M 603 3500 
L 1178 3500 
L 1178 0 
L 603 0 
L 603 3500 
z
M 603 4863 
L 1178 4863 
L 1178 4134 
L 603 4134 
L 603 4863 
z
" transform="scale(0.015625)"/>
       <path id="DejaVuSans-6c" d="M 603 4863 
L 1178 4863 
L 1178 0 
L 603 0 
L 603 4863 
z
" transform="scale(0.015625)"/>
      </defs>
      <use xlink:href="#DejaVuSans-50"/>
      <use xlink:href="#DejaVuSans-65" transform="translate(56.677734 0)"/>
      <use xlink:href="#DejaVuSans-72" transform="translate(118.201172 0)"/>
      <use xlink:href="#DejaVuSans-63" transform="translate(157.064453 0)"/>
      <use xlink:href="#DejaVuSans-65" transform="translate(212.044922 0)"/>
      <use xlink:href="#DejaVuSans-6e" transform="translate(273.568359 0)"/>
      <use xlink:href="#DejaVuSans-74" transform="translate(336.947266 0)"/>
      <use xlink:href="#DejaVuSans-69" transform="translate(376.15625 0)"/>
      <use xlink:href="#DejaVuSans-6c" transform="translate(403.939453 0)"/>
      <use xlink:href="#DejaVuSans-65" transform="translate(431.722656 0)"/>
     </g>
    </g>
   </g>
   <g id="matplotlib.axis_2">
    <g id="ytick_1">
     <g id="line2d_8"/>
     <g id="text_9">
      <!-- $\mathdefault{10^{0}}$ -->
      <g transform="translate(24.749375 379.323725) scale(0.11 -0.11)">
       <defs>
        <path id="DejaVuSans-31" d="M 794 531 
L 1825 531 
L 1825 4091 
L 703 3866 
L 703 4441 
L 1819 4666 
L 2450 4666 
L 2450 531 
L 3481 531 
L 3481 0 
L 794 0 
L 794 531 
z
" transform="scale(0.015625)"/>
       </defs>
       <use xlink:href="#DejaVuSans-31" transform="translate(0 0.765625)"/>
       <use xlink:href="#DejaVuSans-30" transform="translate(63.623047 0.765625)"/>
       <use xlink:href="#DejaVuSans-30" transform="translate(128.203125 39.046875) scale(0.7)"/>
      </g>
     </g>
    </g>
    <g id="ytick_2">
     <g id="line2d_9"/>
     <g id="text_10">
      <!-- $\mathdefault{10^{1}}$ -->
      <g transform="translate(24.749375 303.287718) scale(0.11 -0.11)">
       <use xlink:href="#DejaVuSans-31" transform="translate(0 0.684375)"/>
       <use xlink:href="#DejaVuSans-30" transform="translate(63.623047 0.684375)"/>
       <use xlink:href="#DejaVuSans-31" transform="translate(128.203125 38.965625) scale(0.7)"/>
      </g>
     </g>
    </g>
    <g id="ytick_3">
     <g id="line2d_10"/>
     <g id="text_11">
      <!-- $\mathdefault{10^{2}}$ -->
      <g transform="translate(24.749375 227.25171) scale(0.11 -0.11)">
       <defs>
        <path id="DejaVuSans-32" d="M 1228 531 
L 3431 531 
L 3431 0 
L 469 0 
L 469 531 
Q 828 903 1448 1529 
Q 2069 2156 2228 2338 
Q 2531 2678 2651 2914 
Q 2772 3150 2772 3378 
Q 2772 3750 2511 3984 
Q 2250 4219 1831 4219 
Q 1534 4219 1204 4116 
Q 875 4013 500 3803 
L 500 4441 
Q 881 4594 1212 4672 
Q 1544 4750 1819 4750 
Q 2544 4750 2975 4387 
Q 3406 4025 3406 3419 
Q 3406 3131 3298 2873 
Q 3191 2616 2906 2266 
Q 2828 2175 2409 1742 
Q 1991 1309 1228 531 
z
" transform="scale(0.015625)"/>
       </defs>
       <use xlink:href="#DejaVuSans-31" transform="translate(0 0.765625)"/>
       <use xlink:href="#DejaVuSans-30" transform="translate(63.623047 0.765625)"/>
       <use xlink:href="#DejaVuSans-32" transform="translate(128.203125 39.046875) scale(0.7)"/>
      </g>
     </g>
    </g>
    <g id="ytick_4">
     <g id="line2d_11"/>
     <g id="text_12">
      <!-- $\mathdefault{10^{3}}$ -->
      <g transform="translate(24.749375 151.215702) scale(0.11 -0.11)">
       <defs>
        <path id="DejaVuSans-33" d="M 2597 2516 
Q 3050 2419 3304 2112 
Q 3559 1806 3559 1356 
Q 3559 666 3084 287 
Q 2609 -91 1734 -91 
Q 1441 -91 1130 -33 
Q 819 25 488 141 
L 488 750 
Q 750 597 1062 519 
Q 1375 441 1716 441 
Q 2309 441 2620 675 
Q 2931 909 2931 1356 
Q 2931 1769 2642 2001 
Q 2353 2234 1838 2234 
L 1294 2234 
L 1294 2753 
L 1863 2753 
Q 2328 2753 2575 2939 
Q 2822 3125 2822 3475 
Q 2822 3834 2567 4026 
Q 2313 4219 1838 4219 
Q 1578 4219 1281 4162 
Q 984 4106 628 3988 
L 628 4550 
Q 988 4650 1302 4700 
Q 1616 4750 1894 4750 
Q 2613 4750 3031 4423 
Q 3450 4097 3450 3541 
Q 3450 3153 3228 2886 
Q 3006 2619 2597 2516 
z
" transform="scale(0.015625)"/>
       </defs>
       <use xlink:href="#DejaVuSans-31" transform="translate(0 0.765625)"/>
       <use xlink:href="#DejaVuSans-30" transform="translate(63.623047 0.765625)"/>
       <use xlink:href="#DejaVuSans-33" transform="translate(128.203125 39.046875) scale(0.7)"/>
      </g>
     </g>
    </g>
    <g id="ytick_5">
     <g id="line2d_12"/>
     <g id="text_13">
      <!-- $\mathdefault{10^{4}}$ -->
      <g transform="translate(24.749375 75.179695) scale(0.11 -0.11)">
       <defs>
        <path id="DejaVuSans-34" d="M 2419 4116 
L 825 1625 
L 2419 1625 
L 2419 4116 
z
M 2253 4666 
L 3047 4666 
L 3047 1625 
L 3713 1625 
L 3713 1100 
L 3047 1100 
L 3047 0 
L 2419 0 
L 2419 1100 
L 313 1100 
L 313 1709 
L 2253 4666 
z
" transform="scale(0.015625)"/>
       </defs>
       <use xlink:href="#DejaVuSans-31" transform="translate(0 0.684375)"/>
       <use xlink:href="#DejaVuSans-30" transform="translate(63.623047 0.684375)"/>
       <use xlink:href="#DejaVuSans-34" transform="translate(128.203125 38.965625) scale(0.7)"/>
      </g>
     </g>
    </g>
    <g id="text_14">
     <!-- Latency (ns, log scale) -->
     <g transform="translate(17.837813 300.048666) rotate(-90) scale(0.14 -0.14)">
      <defs>
       <path id="DejaVuSans-4c" d="M 628 4666 
L 1259 4666 
L 1259 531 
L 3531 531 
L 3531 0 
L 628 0 
L 628 4666 
z
" transform="scale(0.015625)"/>
       <path id="DejaVuSans-61" d="M 2194 1759 
Q 1497 1759 1228 1600 
Q 959 1441 959 1056 
Q 959 750 1161 570 
Q 1363 391 1709 391 
Q 2188 391 2477 730 
Q 2766 1069 2766 1631 
L 2766 1759 
L 2194 1759 
z
M 3341 1997 
L 3341 0 
L 2766 0 
L 2766 531 
Q 2569 213 2275 61 
Q 1981 -91 1556 -91 
Q 1019 -91 701 211 
Q 384 513 384 1019 
Q 384 1609 779 1909 
Q 1175 2209 1959 2209 
L 2766 2209 
L 2766 2266 
Q 2766 2663 2505 2880 
Q 2244 3097 1772 3097 
Q 1472 3097 1187 3025 
Q 903 2953 641 2809 
L 641 3341 
Q 956 3463 1253 3523 
Q 1550 3584 1831 3584 
Q 2591 3584 2966 3190 
Q 3341 2797 3341 1997 
z
" transform="scale(0.015625)"/>
       <path id="DejaVuSans-79" d="M 2059 -325 
Q 1816 -950 1584 -1140 
Q 1353 -1331 966 -1331 
L 506 -1331 
L 506 -850 
L 844 -850 
Q 1081 -850 1212 -737 
Q 1344 -625 1503 -206 
L 1606 56 
L 191 3500 
L 800 3500 
L 1894 763 
L 2988 3500 
L 3597 3500 
L 2059 -325 
z
" transform="scale(0.015625)"/>
       <path id="DejaVuSans-20" transform="scale(0.015625)"/>
       <path id="DejaVuSans-28" d="M 1984 4856 
Q 1566 4138 1362 3434 
Q 1159 2731 1159 2009 
Q 1159 1288 1364 580 
Q 1569 -128 1984 -844 
L 1484 -844 
Q 1016 -109 783 600 
Q 550 1309 550 2009 
Q 550 2706 781 3412 
Q 1013 4119 1484 4856 
L 1984 4856 
z
" transform="scale(0.015625)"/>
       <path id="DejaVuSans-73" d="M 2834 3397 
L 2834 2853 
Q 2591 2978 2328 3040 
Q 2066 3103 1784 3103 
Q 1356 3103 1142 2972 
Q 928 2841 928 2578 
Q 928 2378 1081 2264 
Q 1234 2150 1697 2047 
L 1894 2003 
Q 2506 1872 2764 1633 
Q 3022 1394 3022 966 
Q 3022 478 2636 193 
Q 2250 -91 1575 -91 
Q 1294 -91 989 -36 
Q 684 19 347 128 
L 347 722 
Q 666 556 975 473 
Q 1284 391 1588 391 
Q 1994 391 2212 530 
Q 2431 669 2431 922 
Q 2431 1156 2273 1281 
Q 2116 1406 1581 1522 
L 1381 1569 
Q 847 1681 609 1914 
Q 372 2147 372 2553 
Q 372 3047 722 3315 
Q 1072 3584 1716 3584 
Q 2034 3584 2315 3537 
Q 2597 3491 2834 3397 
z
" transform="scale(0.015625)"/>
       <path id="DejaVuSans-2c" d="M 750 794 
L 1409 794 
L 1409 256 
L 897 -744 
L 494 -744 
L 750 256 
L 750 794 
z
" transform="scale(0.015625)"/>
       <path id="DejaVuSans-6f" d="M 1959 3097 
Q 1497 3097 1228 2736 
Q 959 2375 959 1747 
Q 959 1119 1226 758 
Q 1494 397 1959 397 
Q 2419 397 2687 759 
Q 2956 1122 2956 1747 
Q 2956 2369 2687 2733 
Q 2419 3097 1959 3097 
z
M 1959 3584 
Q 2709 3584 3137 3096 
Q 3566 2609 3566 1747 
Q 3566 888 3137 398 
Q 2709 -91 1959 -91 
Q 1206 -91 779 398 
Q 353 888 353 1747 
Q 353 2609 779 3096 
Q 1206 3584 1959 3584 
z
" transform="scale(0.015625)"/>
       <path id="DejaVuSans-67" d="M 2906 1791 
Q 2906 2416 2648 2759 
Q 2391 3103 1925 3103 
Q 1463 3103 1205 2759 
Q 947 2416 947 1791 
Q 947 1169 1205 825 
Q 1463 481 1925 481 
Q 2391 481 2648 825 
Q 2906 1169 2906 1791 
z
M 3481 434 
Q 3481 -459 3084 -895 
Q 2688 -1331 1869 -1331 
Q 1566 -1331 1297 -1286 
Q 1028 -1241 775 -1147 
L 775 -588 
Q 1028 -725 1275 -790 
Q 1522 -856 1778 -856 
Q 2344 -856 2625 -561 
Q 2906 -266 2906 331 
L 2906 616 
Q 2728 306 2450 153 
Q 2172 0 1784 0 
Q 1141 0 747 490 
Q 353 981 353 1791 
Q 353 2603 747 3093 
Q 1141 3584 1784 3584 
Q 2172 3584 2450 3431 
Q 2728 3278 2906 2969 
L 2906 3500 
L 3481 3500 
L 3481 434 
z
" transform="scale(0.015625)"/>
       <path id="DejaVuSans-29" d="M 513 4856 
L 1013 4856 
Q 1481 4119 1714 3412 
Q 1947 2706 1947 2009 
Q 1947 1309 1714 600 
Q 1481 -109 1013 -844 
L 513 -844 
Q 928 -128 1133 580 
Q 1338 1288 1338 2009 
Q 1338 2731 1133 3434 
Q 928 4138 513 4856 
z
" transform="scale(0.015625)"/>
      </defs>
      <use xlink:href="#DejaVuSans-4c"/>
      <use xlink:href="#DejaVuSans-61" transform="translate(55.712891 0)"/>
      <use xlink:href="#DejaVuSans-74" transform="translate(116.992188 0)"/>
      <use xlink:href="#DejaVuSans-65" transform="translate(156.201172 0)"/>
      <use xlink:href="#DejaVuSans-6e" transform="translate(217.724609 0)"/>
      <use xlink:href="#DejaVuSans-63" transform="translate(281.103516 0)"/>
      <use xlink:href="#DejaVuSans-79" transform="translate(336.083984 0)"/>
      <use xlink:href="#DejaVuSans-20" transform="translate(395.263672 0)"/>
      <use xlink:href="#DejaVuSans-28" transform="translate(427.050781 0)"/>
      <use xlink:href="#DejaVuSans-6e" transform="translate(466.064453 0)"/>
      <use xlink:href="#DejaVuSans-73" transform="translate(529.443359 0)"/>
      <use xlink:href="#DejaVuSans-2c" transform="translate(581.542969 0)"/>
      <use xlink:href="#DejaVuSans-20" transform="translate(613.330078 0)"/>
      <use xlink:href="#DejaVuSans-6c" transform="translate(645.117188 0)"/>
      <use xlink:href="#DejaVuSans-6f" transform="translate(672.900391 0)"/>
      <use xlink:href="#DejaVuSans-67" transform="translate(734.082031 0)"/>
      <use xlink:href="#DejaVuSans-20" transform="translate(797.558594 0)"/>
      <use xlink:href="#DejaVuSans-73" transform="translate(829.345703 0)"/>
      <use xlink:href="#DejaVuSans-63" transform="translate(881.445312 0)"/>
      <use xlink:href="#DejaVuSans-61" transform="translate(936.425781 0)"/>
      <use xlink:href="#DejaVuSans-6c" transform="translate(997.705078 0)"/>
      <use xlink:href="#DejaVuSans-65" transform="translate(1025.488281 0)"/>
      <use xlink:href="#DejaVuSans-29" transform="translate(1087.011719 0)"/>
     </g>
    </g>
   </g>
   <g id="line2d_13">
    <path d="M 47.61315 306.477227 
L 47.771102 216.7779 
L 48.033754 212.676883 
L 49.700896 209.02937 
L 51.976469 205.744974 
L 52.561294 202.757898 
L 52.996164 200.018752 
L 54.10954 197.489514 
L 55.070441 195.140292 
L 59.684454 193.080038 
L 59.707777 192.947153 
L 71.631367 191.01549 
L 71.705464 190.890643 
L 81.781986 188.954732 
L 84.930683 187.126056 
L 86.787293 185.393356 
L 94.593467 182.274808 
L 94.618119 182.178953 
L 109.875241 180.681948 
L 217.507457 177.877333 
L 281.73249 175.370174 
L 282.078386 175.292384 
L 311.624306 172.967514 
L 311.75879 172.895176 
L 330.244328 171.758823 
L 355.624452 170.660276 
L 388.849392 169.597101 
L 418.538319 168.567091 
L 433.673372 167.568239 
L 443.101137 166.598716 
L 459.754022 165.656847 
L 479.274903 164.7411 
L 486.136559 163.850064 
L 492.874887 162.18924 
L 494.418777 161.363646 
L 495.685087 160.558191 
L 497.144553 159.771915 
L 497.80554 159.003927 
L 498.138963 158.253394 
L 498.474372 156.801643 
L 498.981258 156.09902 
L 499.151238 155.411037 
L 499.492745 152.794063 
L 499.836334 152.170987 
L 500.182031 147.569187 
L 500.355678 136.305137 
L 501.055668 134.812362 
L 503.209374 133.38416 
L 503.392621 133.014953 
L 505.258634 132.015176 
L 505.44868 131.99423 
L 507.780672 131.351395 
L 508.983888 131.024441 
L 510.006574 130.380089 
L 510.213357 130.062567 
L 513.190949 128.822157 
L 515.41845 128.519201 
L 516.104241 128.200326 
L 516.566116 127.921501 
L 518.452433 127.316249 
L 518.692725 127.044759 
L 519.664274 126.757609 
L 520.156403 126.472935 
L 522.169062 125.633347 
L 522.942737 125.341038 
L 524.790392 124.546104 
L 525.601175 124.279796 
L 531.932654 122.963615 
L 532.853903 122.70972 
L 535.063929 122.457763 
L 535.711619 122.207713 
L 536.038278 121.959543 
L 539.413445 121.226029 
L 543.75008 120.272689 
L 548.858313 119.806145 
L 549.686982 119.346101 
L 553.129178 118.667832 
L 555.392472 118.444804 
L 557.270928 118.003216 
L 558.722041 117.784617 
L 559.21417 117.567455 
L 560.716884 117.351712 
L 561.226829 117.13737 
L 564.387383 116.712814 
L 564.931817 116.502566 
L 567.16373 116.293648 
L 568.313738 115.879735 
L 570.686655 115.674708 
L 571.295833 115.470947 
L 574.44461 115.067157 
L 575.755098 114.668245 
L 578.471212 114.274095 
L 582.061499 113.884594 
L 583.564213 113.499633 
L 585.896206 113.308823 
L 586.695488 113.119109 
L 589.163698 112.742919 
L 590.871357 112.370967 
L 594.450239 112.003158 
L 599.269281 111.639401 
L 602.371814 109.367901 
L 603.44515 109.199474 
L 604.539329 108.699289 
L 605.655176 108.53423 
L 606.793567 108.206567 
L 612.858388 107.882123 
L 618.228968 106.927491 
L 619.655588 106.771035 
L 621.119266 106.306064 
L 622.62198 105.999682 
L 630.802761 105.545374 
L 632.591751 104.949191 
L 634.439406 103.788177 
L 636.349706 103.222627 
L 638.327048 103.08274 
L 640.376308 102.529044 
L 644.712943 101.984479 
L 647.013199 101.448748 
L 649.411367 100.515491 
L 651.916155 99.875974 
L 654.537485 99.373131 
L 660.177033 99.124552 
L 663.223637 98.511169 
L 669.860528 96.621573 
L 673.497173 96.165598 
L 677.384814 95.382486 
L 686.070966 95.162109 
L 690.973922 94.725718 
L 696.344502 92.021639 
L 702.281404 91.822523 
L 708.918295 90.941068 
L 716.442581 90.461349 
L 725.128733 90.271397 
L 729.348278 89.478218 
L 729.348278 89.478218 
" clip-path="url(#p3fceb5ce72)" style="fill: none; stroke: #a6cee3; stroke-width: 2; stroke-linecap: square"/>
    <defs>
     <path id="mc0c1b22442" d="M 0 2 
C 0.530406 2 1.03916 1.789267 1.414214 1.414214 
C 1.789267 1.03916 2 0.530406 2 0 
C 2 -0.530406 1.789267 -1.03916 1.414214 -1.414214 
C 1.03916 -1.789267 0.530406 -2 0 -2 
C -0.530406 -2 -1.03916 -1.789267 -1.414214 -1.414214 
C -1.789267 -1.03916 -2 -0.530406 -2 0 
C -2 0.530406 -1.789267 1.03916 -1.414214 1.414214 
C -1.03916 1.789267 -0.530406 2 0 2 
z
" style="stroke: #a6cee3"/>
    </defs>
    <g clip-path="url(#p3fceb5ce72)">
     <use xlink:href="#mc0c1b22442" x="47.61315" y="306.477227" style="fill: #a6cee3; stroke: #a6cee3"/>
     <use xlink:href="#mc0c1b22442" x="48.033073" y="212.918804" style="fill: #a6cee3; stroke: #a6cee3"/>
     <use xlink:href="#mc0c1b22442" x="54.10954" y="197.489514" style="fill: #a6cee3; stroke: #a6cee3"/>
     <use xlink:href="#mc0c1b22442" x="86.776791" y="185.499027" style="fill: #a6cee3; stroke: #a6cee3"/>
     <use xlink:href="#mc0c1b22442" x="217.507457" y="177.877333" style="fill: #a6cee3; stroke: #a6cee3"/>
     <use xlink:href="#mc0c1b22442" x="355.305422" y="170.727875" style="fill: #a6cee3; stroke: #a6cee3"/>
     <use xlink:href="#mc0c1b22442" x="459.754022" y="165.656847" style="fill: #a6cee3; stroke: #a6cee3"/>
     <use xlink:href="#mc0c1b22442" x="498.138963" y="158.253394" style="fill: #a6cee3; stroke: #a6cee3"/>
     <use xlink:href="#mc0c1b22442" x="501.586426" y="134.449479" style="fill: #a6cee3; stroke: #a6cee3"/>
     <use xlink:href="#mc0c1b22442" x="507.780672" y="131.351395" style="fill: #a6cee3; stroke: #a6cee3"/>
     <use xlink:href="#mc0c1b22442" x="516.104241" y="128.200326" style="fill: #a6cee3; stroke: #a6cee3"/>
     <use xlink:href="#mc0c1b22442" x="522.683663" y="125.358162" style="fill: #a6cee3; stroke: #a6cee3"/>
     <use xlink:href="#mc0c1b22442" x="532.853903" y="122.70972" style="fill: #a6cee3; stroke: #a6cee3"/>
     <use xlink:href="#mc0c1b22442" x="546.44301" y="120.038593" style="fill: #a6cee3; stroke: #a6cee3"/>
     <use xlink:href="#mc0c1b22442" x="559.21417" y="117.567455" style="fill: #a6cee3; stroke: #a6cee3"/>
     <use xlink:href="#mc0c1b22442" x="574.44461" y="115.067157" style="fill: #a6cee3; stroke: #a6cee3"/>
     <use xlink:href="#mc0c1b22442" x="588.328891" y="112.930478" style="fill: #a6cee3; stroke: #a6cee3"/>
     <use xlink:href="#mc0c1b22442" x="604.539329" y="108.699289" style="fill: #a6cee3; stroke: #a6cee3"/>
     <use xlink:href="#mc0c1b22442" x="629.068826" y="105.696117" style="fill: #a6cee3; stroke: #a6cee3"/>
     <use xlink:href="#mc0c1b22442" x="651.916155" y="99.875974" style="fill: #a6cee3; stroke: #a6cee3"/>
     <use xlink:href="#mc0c1b22442" x="696.344502" y="92.021639" style="fill: #a6cee3; stroke: #a6cee3"/>
    </g>
   </g>
   <g id="line2d_14">
    <path d="M 47.615292 306.477227 
L 47.712814 241.634871 
L 47.853046 221.777422 
L 48.012524 216.7779 
L 49.08781 212.676883 
L 53.963332 209.245909 
L 53.981627 209.02937 
L 58.167038 205.940951 
L 58.181244 205.744974 
L 59.180138 202.757898 
L 61.137884 200.018752 
L 64.610651 197.642041 
L 64.624977 197.489514 
L 66.932363 195.140292 
L 76.186098 193.080038 
L 76.235431 192.947153 
L 92.885777 191.01549 
L 92.980745 190.890643 
L 104.400883 188.954732 
L 108.173671 187.126056 
L 112.969673 185.393356 
L 122.205252 183.747058 
L 129.373238 182.178953 
L 153.264199 180.681948 
L 210.561807 179.249874 
L 253.740461 177.877333 
L 289.710685 176.559571 
L 315.569107 175.292384 
L 346.093412 172.895176 
L 365.443916 171.758823 
L 390.781248 170.660276 
L 420.865724 169.597101 
L 443.164132 168.567091 
L 456.228533 167.568239 
L 465.728539 166.658484 
L 481.595102 165.714934 
L 491.224082 164.7411 
L 500.182031 163.036004 
L 503.760913 161.363646 
L 504.504798 159.771915 
L 504.880455 158.253394 
L 505.258634 156.09902 
L 505.639368 155.411037 
L 505.830704 152.170987 
L 506.215337 150.959034 
L 506.602613 147.036562 
L 506.797254 136.689118 
L 507.385243 135.925569 
L 507.979432 134.449479 
L 508.379069 133.735462 
L 509.595269 133.036557 
L 509.800546 132.692575 
L 510.213357 132.352138 
L 510.8383 132.015176 
L 511.048164 131.681617 
L 511.682487 131.351395 
L 511.895525 131.024441 
L 513.850003 130.380089 
L 514.96585 130.062567 
L 515.874715 129.436538 
L 517.501381 128.822157 
L 519.419812 127.921501 
L 522.425775 127.334427 
L 522.683663 127.044759 
L 523.203007 126.757609 
L 525.601175 126.472935 
L 525.87405 126.190693 
L 528.391272 125.358162 
L 530.134147 125.068268 
L 530.42994 124.814577 
L 531.628888 124.546104 
L 533.790463 124.279796 
L 534.423599 124.015618 
L 535.386843 123.737226 
L 537.029772 123.477337 
L 538.3795 122.963615 
L 539.762353 122.70972 
L 540.466718 122.207713 
L 542.267141 121.713223 
L 542.634233 121.468728 
L 544.506447 121.226029 
L 545.66038 120.745919 
L 549.686982 120.038593 
L 551.81359 119.806145 
L 552.687227 119.575322 
L 553.129178 119.11846 
L 554.932482 118.667832 
L 556.323873 118.003216 
L 560.211514 117.351712 
L 560.716884 117.13737 
L 563.314047 116.92441 
L 564.931817 116.502566 
L 565.481562 116.086043 
L 567.16373 115.879735 
L 567.7358 115.674708 
L 568.897665 115.470947 
L 570.686655 114.867099 
L 571.911669 114.668245 
L 575.096045 114.470582 
L 575.755098 114.274095 
L 579.879996 113.308823 
L 583.564213 112.742919 
L 584.330871 112.55642 
L 585.108103 112.186551 
L 585.896206 112.003158 
L 587.506271 111.820779 
L 589.163698 111.459014 
L 590.011059 111.101169 
L 592.63239 110.57157 
L 596.328695 110.396908 
L 597.291939 110.223164 
L 598.271937 109.707353 
L 600.284595 109.367901 
L 601.318541 109.031903 
L 602.371814 108.865177 
L 603.44515 108.043947 
L 604.539329 107.721089 
L 605.655176 107.560836 
L 607.955432 106.927491 
L 609.141759 106.460328 
L 614.153812 106.152518 
L 621.119266 105.395316 
L 624.16587 105.245937 
L 627.386658 104.655089 
L 630.802761 104.363582 
L 634.439406 103.931091 
L 638.327048 103.645879 
L 644.712943 102.255639 
L 647.013199 102.11978 
L 649.411367 101.581868 
L 651.916155 101.316163 
L 657.286735 100.921571 
L 660.177033 99.373131 
L 666.444425 99.124552 
L 669.860528 98.755157 
L 677.384814 98.268972 
L 681.560683 97.552857 
L 686.070966 93.346008 
L 690.973922 92.83033 
L 696.344502 90.556737 
L 708.918295 89.894738 
L 716.442581 88.60927 
L 725.128733 86.770287 
L 729.348278 86.700499 
L 729.348278 86.700499 
" clip-path="url(#p3fceb5ce72)" style="fill: none; stroke: #1f78b4; stroke-width: 2; stroke-linecap: square"/>
    <defs>
     <path id="m67ba21417c" d="M -0 2 
L 2 -2 
L -2 -2 
z
" style="stroke: #1f78b4; stroke-linejoin: miter"/>
    </defs>
    <g clip-path="url(#p3fceb5ce72)">
     <use xlink:href="#m67ba21417c" x="47.615292" y="306.477227" style="fill: #1f78b4; stroke: #1f78b4; stroke-linejoin: miter"/>
     <use xlink:href="#m67ba21417c" x="48.012524" y="216.7779" style="fill: #1f78b4; stroke: #1f78b4; stroke-linejoin: miter"/>
     <use xlink:href="#m67ba21417c" x="64.610651" y="197.642041" style="fill: #1f78b4; stroke: #1f78b4; stroke-linejoin: miter"/>
     <use xlink:href="#m67ba21417c" x="108.173671" y="187.126056" style="fill: #1f78b4; stroke: #1f78b4; stroke-linejoin: miter"/>
     <use xlink:href="#m67ba21417c" x="253.235636" y="177.961465" style="fill: #1f78b4; stroke: #1f78b4; stroke-linejoin: miter"/>
     <use xlink:href="#m67ba21417c" x="365.443916" y="171.758823" style="fill: #1f78b4; stroke: #1f78b4; stroke-linejoin: miter"/>
     <use xlink:href="#m67ba21417c" x="490.929064" y="164.797596" style="fill: #1f78b4; stroke: #1f78b4; stroke-linejoin: miter"/>
     <use xlink:href="#m67ba21417c" x="505.258634" y="156.09902" style="fill: #1f78b4; stroke: #1f78b4; stroke-linejoin: miter"/>
     <use xlink:href="#m67ba21417c" x="508.178896" y="134.090541" style="fill: #1f78b4; stroke: #1f78b4; stroke-linejoin: miter"/>
     <use xlink:href="#m67ba21417c" x="512.972966" y="130.680564" style="fill: #1f78b4; stroke: #1f78b4; stroke-linejoin: miter"/>
     <use xlink:href="#m67ba21417c" x="521.405866" y="127.608319" style="fill: #1f78b4; stroke: #1f78b4; stroke-linejoin: miter"/>
     <use xlink:href="#m67ba21417c" x="530.134147" y="125.068268" style="fill: #1f78b4; stroke: #1f78b4; stroke-linejoin: miter"/>
     <use xlink:href="#m67ba21417c" x="541.540054" y="121.959543" style="fill: #1f78b4; stroke: #1f78b4; stroke-linejoin: miter"/>
     <use xlink:href="#m67ba21417c" x="554.023617" y="118.892377" style="fill: #1f78b4; stroke: #1f78b4; stroke-linejoin: miter"/>
     <use xlink:href="#m67ba21417c" x="565.481562" y="116.086043" style="fill: #1f78b4; stroke: #1f78b4; stroke-linejoin: miter"/>
     <use xlink:href="#m67ba21417c" x="582.807847" y="112.930478" style="fill: #1f78b4; stroke: #1f78b4; stroke-linejoin: miter"/>
     <use xlink:href="#m67ba21417c" x="597.291939" y="110.223164" style="fill: #1f78b4; stroke: #1f78b4; stroke-linejoin: miter"/>
     <use xlink:href="#m67ba21417c" x="609.141759" y="106.460328" style="fill: #1f78b4; stroke: #1f78b4; stroke-linejoin: miter"/>
     <use xlink:href="#m67ba21417c" x="634.439406" y="103.931091" style="fill: #1f78b4; stroke: #1f78b4; stroke-linejoin: miter"/>
     <use xlink:href="#m67ba21417c" x="673.497173" y="98.511169" style="fill: #1f78b4; stroke: #1f78b4; stroke-linejoin: miter"/>
     <use xlink:href="#m67ba21417c" x="747.976062" y="85.028336" style="fill: #1f78b4; stroke: #1f78b4; stroke-linejoin: miter"/>
    </g>
   </g>
   <g id="line2d_15">
    <path d="M 47.609544 375.144584 
L 47.702879 268.850807 
L 47.960674 233.920437 
L 48.045279 221.46142 
L 50.233574 217.051944 
L 50.239006 216.7779 
L 63.199331 212.918804 
L 63.240587 212.676883 
L 70.786433 209.245909 
L 70.81254 209.02937 
L 72.090029 205.744974 
L 72.547107 202.757898 
L 73.53669 200.018752 
L 74.128714 197.489514 
L 84.643421 195.282322 
L 84.692694 195.140292 
L 129.337829 193.080038 
L 129.67045 192.947153 
L 153.262164 191.01549 
L 153.414856 190.890643 
L 159.75557 188.954732 
L 165.108465 185.499027 
L 165.125244 185.393356 
L 167.628217 183.747058 
L 183.14064 182.178953 
L 246.273475 180.681948 
L 293.635161 179.249874 
L 317.75233 177.877333 
L 331.264756 176.559571 
L 340.32126 175.292384 
L 369.031032 172.895176 
L 399.248241 171.758823 
L 436.45742 170.660276 
L 456.387878 169.597101 
L 465.822857 168.630534 
L 471.571617 167.62979 
L 484.933512 166.598716 
L 492.11869 165.714934 
L 497.309243 164.797596 
L 503.209543 163.905055 
L 506.797423 163.036004 
L 510.421071 160.508496 
L 511.048333 159.771915 
L 513.191118 156.09902 
L 513.850172 155.411037 
L 514.293862 154.737095 
L 514.741075 150.369339 
L 514.966019 149.18537 
L 515.191865 128.822157 
L 515.418619 127.044759 
L 516.10441 124.814577 
L 516.79865 124.546104 
L 517.266275 124.015618 
L 518.452602 123.477337 
L 518.934215 123.219477 
L 519.664443 122.963615 
L 519.90997 122.70972 
L 521.659287 122.457763 
L 524.790561 121.468728 
L 534.423768 119.806145 
L 538.722213 119.346101 
L 539.762522 119.11846 
L 547.63789 118.223272 
L 550.1061 117.784617 
L 556.79558 117.13737 
L 558.234341 116.92441 
L 560.717053 116.712814 
L 561.226998 116.502566 
L 567.735969 116.086043 
L 568.313907 115.879735 
L 569.487876 115.674708 
L 577.09696 115.067157 
L 586.695657 114.274095 
L 590.871526 113.884594 
L 593.534153 113.499633 
L 594.450408 113.119109 
L 600.284764 112.55642 
L 604.539498 112.370967 
L 612.858557 111.820779 
L 619.655757 110.923691 
L 622.622149 110.747161 
L 624.166039 110.223164 
L 630.80293 109.53719 
L 636.349875 109.367901 
L 642.503086 108.865177 
L 644.713112 108.53423 
L 651.916324 108.206567 
L 654.537654 107.882123 
L 660.177202 107.401358 
L 663.223806 106.771035 
L 666.444594 106.460328 
L 669.860697 104.509014 
L 673.497342 104.074626 
L 677.384983 103.931091 
L 681.560853 103.08274 
L 686.071135 102.804731 
L 690.974091 102.11978 
L 696.344671 100.791081 
L 702.281573 100.00289 
L 708.918464 97.083932 
L 716.44275 96.967734 
L 729.348278 94.097865 
L 729.348278 94.097865 
" clip-path="url(#p3fceb5ce72)" style="fill: none; stroke: #fdbf6f; stroke-width: 2; stroke-linecap: square"/>
    <defs>
     <path id="mcfe1fd0a11" d="M -2 2 
L 2 2 
L 2 -2 
L -2 -2 
z
" style="stroke: #fdbf6f; stroke-linejoin: miter"/>
    </defs>
    <g clip-path="url(#p3fceb5ce72)">
     <use xlink:href="#mcfe1fd0a11" x="47.609544" y="375.144584" style="fill: #fdbf6f; stroke: #fdbf6f; stroke-linejoin: miter"/>
     <use xlink:href="#mcfe1fd0a11" x="47.960731" y="233.464953" style="fill: #fdbf6f; stroke: #fdbf6f; stroke-linejoin: miter"/>
     <use xlink:href="#mcfe1fd0a11" x="70.786433" y="209.245909" style="fill: #fdbf6f; stroke: #fdbf6f; stroke-linejoin: miter"/>
     <use xlink:href="#mcfe1fd0a11" x="74.128714" y="197.489514" style="fill: #fdbf6f; stroke: #fdbf6f; stroke-linejoin: miter"/>
     <use xlink:href="#mcfe1fd0a11" x="162.476769" y="187.237429" style="fill: #fdbf6f; stroke: #fdbf6f; stroke-linejoin: miter"/>
     <use xlink:href="#mcfe1fd0a11" x="246.273475" y="180.681948" style="fill: #fdbf6f; stroke: #fdbf6f; stroke-linejoin: miter"/>
     <use xlink:href="#mcfe1fd0a11" x="353.801482" y="174.146997" style="fill: #fdbf6f; stroke: #fdbf6f; stroke-linejoin: miter"/>
     <use xlink:href="#mcfe1fd0a11" x="456.387878" y="169.597101" style="fill: #fdbf6f; stroke: #fdbf6f; stroke-linejoin: miter"/>
     <use xlink:href="#mcfe1fd0a11" x="507.979602" y="162.18924" style="fill: #fdbf6f; stroke: #fdbf6f; stroke-linejoin: miter"/>
     <use xlink:href="#mcfe1fd0a11" x="513.850172" y="155.411037" style="fill: #fdbf6f; stroke: #fdbf6f; stroke-linejoin: miter"/>
     <use xlink:href="#mcfe1fd0a11" x="516.79865" y="124.546104" style="fill: #fdbf6f; stroke: #fdbf6f; stroke-linejoin: miter"/>
     <use xlink:href="#mcfe1fd0a11" x="522.425944" y="122.207713" style="fill: #fdbf6f; stroke: #fdbf6f; stroke-linejoin: miter"/>
     <use xlink:href="#mcfe1fd0a11" x="532.238235" y="120.038593" style="fill: #fdbf6f; stroke: #fdbf6f; stroke-linejoin: miter"/>
     <use xlink:href="#mcfe1fd0a11" x="548.858482" y="118.003216" style="fill: #fdbf6f; stroke: #fdbf6f; stroke-linejoin: miter"/>
     <use xlink:href="#mcfe1fd0a11" x="567.735969" y="116.086043" style="fill: #fdbf6f; stroke: #fdbf6f; stroke-linejoin: miter"/>
     <use xlink:href="#mcfe1fd0a11" x="586.695657" y="114.274095" style="fill: #fdbf6f; stroke: #fdbf6f; stroke-linejoin: miter"/>
     <use xlink:href="#mcfe1fd0a11" x="604.539498" y="112.370967" style="fill: #fdbf6f; stroke: #fdbf6f; stroke-linejoin: miter"/>
     <use xlink:href="#mcfe1fd0a11" x="625.753424" y="110.05033" style="fill: #fdbf6f; stroke: #fdbf6f; stroke-linejoin: miter"/>
     <use xlink:href="#mcfe1fd0a11" x="660.177202" y="107.401358" style="fill: #fdbf6f; stroke: #fdbf6f; stroke-linejoin: miter"/>
     <use xlink:href="#mcfe1fd0a11" x="696.344671" y="100.791081" style="fill: #fdbf6f; stroke: #fdbf6f; stroke-linejoin: miter"/>
     <use xlink:href="#mcfe1fd0a11" x="826.091764" y="82.613982" style="fill: #fdbf6f; stroke: #fdbf6f; stroke-linejoin: miter"/>
    </g>
   </g>
   <g id="line2d_16">
    <path d="M 47.6096 375.144584 
L 47.69684 268.850807 
L 47.956195 233.464953 
L 48.091465 221.46142 
L 50.035742 216.7779 
L 59.699775 212.918804 
L 59.728904 212.676883 
L 65.031988 209.245909 
L 65.048725 209.02937 
L 65.840028 205.744974 
L 66.327126 202.757898 
L 68.654449 200.018752 
L 69.410586 197.489514 
L 77.799543 195.282322 
L 77.839227 195.140292 
L 109.461134 193.080038 
L 109.673994 192.947153 
L 125.35854 191.01549 
L 125.448409 190.890643 
L 128.710733 188.954732 
L 130.385692 187.126056 
L 133.514197 185.393356 
L 135.52487 183.747058 
L 151.565786 182.178953 
L 221.276875 180.681948 
L 264.563269 179.249874 
L 284.909725 177.877333 
L 294.864174 176.559571 
L 301.881563 175.292384 
L 312.318665 174.072032 
L 324.960493 172.895176 
L 377.323961 170.660276 
L 394.085681 169.597101 
L 401.369291 168.567091 
L 405.607545 167.568239 
L 422.153423 165.714934 
L 422.283809 165.656847 
L 429.814312 164.7411 
L 466.581771 162.982441 
L 477.277107 162.137031 
L 483.885139 161.312725 
L 489.764365 159.771915 
L 492.875056 159.003927 
L 502.844827 157.474212 
L 506.022862 156.801643 
L 507.188733 156.09902 
L 507.780841 155.411037 
L 507.979602 154.737095 
L 508.179065 154.695426 
L 508.781728 154.076632 
L 509.595438 151.559451 
L 509.800715 149.789991 
L 510.006743 149.220632 
L 510.213526 135.925569 
L 510.421071 135.550315 
L 510.838469 134.426931 
L 511.048333 134.090541 
L 512.324202 133.38416 
L 514.517025 132.692575 
L 517.266275 131.351395 
L 518.452602 131.024441 
L 520.404258 130.700693 
L 521.659287 130.062567 
L 523.464654 129.748069 
L 526.423964 128.519201 
L 526.700861 128.218999 
L 528.678203 127.921501 
L 529.25614 127.62666 
L 534.743023 126.190693 
L 537.364354 125.085251 
L 538.722213 124.814577 
L 539.762522 124.529396 
L 546.838608 122.963615 
L 548.041824 122.70972 
L 548.448673 122.457763 
L 555.856417 121.468728 
L 559.214339 120.985102 
L 559.710804 120.508456 
L 564.931986 119.806145 
L 569.487876 119.346101 
L 570.084161 119.11846 
L 573.80079 118.444804 
L 577.09696 118.223272 
L 578.471381 117.784617 
L 581.325077 117.351712 
L 586.695657 116.92441 
L 588.32906 116.502566 
L 590.871526 116.293648 
L 591.745163 116.086043 
L 596.328864 115.674708 
L 598.272106 115.067157 
L 601.31871 114.668245 
L 602.371983 114.07877 
L 604.539498 113.308823 
L 605.655345 112.55642 
L 609.141928 112.003158 
L 610.353769 111.639401 
L 612.858557 111.101169 
L 614.153981 110.396908 
L 615.479888 110.223164 
L 616.837747 108.53423 
L 619.655757 108.369992 
L 624.166039 107.084692 
L 625.753424 106.306064 
L 630.80293 105.696117 
L 632.59192 104.949191 
L 636.349875 104.801813 
L 642.503086 103.931091 
L 644.713112 103.788177 
L 647.013368 103.222627 
L 649.411536 102.804731 
L 654.537654 102.529044 
L 657.286904 102.11978 
L 663.223806 101.984479 
L 669.860697 101.184108 
L 673.497342 101.052578 
L 681.560853 100.386593 
L 686.071135 100.258196 
L 690.974091 99.373131 
L 696.344671 98.87783 
L 702.281573 98.755157 
L 708.918464 96.392799 
L 716.44275 95.715834 
L 729.348278 94.330913 
L 729.348278 94.330913 
" clip-path="url(#p3fceb5ce72)" style="fill: none; stroke: #ff7f00; stroke-width: 2; stroke-linecap: square"/>
    <defs>
     <path id="m07e2188f26" d="M -0 2.828427 
L 2.828427 0 
L 0 -2.828427 
L -2.828427 -0 
z
" style="stroke: #ff7f00; stroke-linejoin: miter"/>
    </defs>
    <g clip-path="url(#p3fceb5ce72)">
     <use xlink:href="#m07e2188f26" x="47.6096" y="375.144584" style="fill: #ff7f00; stroke: #ff7f00; stroke-linejoin: miter"/>
     <use xlink:href="#m07e2188f26" x="47.99567" y="226.920751" style="fill: #ff7f00; stroke: #ff7f00; stroke-linejoin: miter"/>
     <use xlink:href="#m07e2188f26" x="66.325162" y="202.936879" style="fill: #ff7f00; stroke: #ff7f00; stroke-linejoin: miter"/>
     <use xlink:href="#m07e2188f26" x="125.448409" y="190.890643" style="fill: #ff7f00; stroke: #ff7f00; stroke-linejoin: miter"/>
     <use xlink:href="#m07e2188f26" x="220.342373" y="180.773548" style="fill: #ff7f00; stroke: #ff7f00; stroke-linejoin: miter"/>
     <use xlink:href="#m07e2188f26" x="312.318665" y="174.072032" style="fill: #ff7f00; stroke: #ff7f00; stroke-linejoin: miter"/>
     <use xlink:href="#m07e2188f26" x="405.510531" y="167.62979" style="fill: #ff7f00; stroke: #ff7f00; stroke-linejoin: miter"/>
     <use xlink:href="#m07e2188f26" x="466.581771" y="162.982441" style="fill: #ff7f00; stroke: #ff7f00; stroke-linejoin: miter"/>
     <use xlink:href="#m07e2188f26" x="506.022862" y="156.801643" style="fill: #ff7f00; stroke: #ff7f00; stroke-linejoin: miter"/>
     <use xlink:href="#m07e2188f26" x="510.006743" y="149.220632" style="fill: #ff7f00; stroke: #ff7f00; stroke-linejoin: miter"/>
     <use xlink:href="#m07e2188f26" x="516.566285" y="131.681617" style="fill: #ff7f00; stroke: #ff7f00; stroke-linejoin: miter"/>
     <use xlink:href="#m07e2188f26" x="526.423964" y="128.519201" style="fill: #ff7f00; stroke: #ff7f00; stroke-linejoin: miter"/>
     <use xlink:href="#m07e2188f26" x="536.697501" y="125.358162" style="fill: #ff7f00; stroke: #ff7f00; stroke-linejoin: miter"/>
     <use xlink:href="#m07e2188f26" x="548.041824" y="122.70972" style="fill: #ff7f00; stroke: #ff7f00; stroke-linejoin: miter"/>
     <use xlink:href="#m07e2188f26" x="564.931986" y="119.806145" style="fill: #ff7f00; stroke: #ff7f00; stroke-linejoin: miter"/>
     <use xlink:href="#m07e2188f26" x="584.33104" y="117.13737" style="fill: #ff7f00; stroke: #ff7f00; stroke-linejoin: miter"/>
     <use xlink:href="#m07e2188f26" x="602.371983" y="114.07877" style="fill: #ff7f00; stroke: #ff7f00; stroke-linejoin: miter"/>
     <use xlink:href="#m07e2188f26" x="619.655757" y="108.369992" style="fill: #ff7f00; stroke: #ff7f00; stroke-linejoin: miter"/>
     <use xlink:href="#m07e2188f26" x="644.713112" y="103.788177" style="fill: #ff7f00; stroke: #ff7f00; stroke-linejoin: miter"/>
     <use xlink:href="#m07e2188f26" x="690.974091" y="99.373131" style="fill: #ff7f00; stroke: #ff7f00; stroke-linejoin: miter"/>
     <use xlink:href="#m07e2188f26" x="955.839026" y="83.143936" style="fill: #ff7f00; stroke: #ff7f00; stroke-linejoin: miter"/>
    </g>
   </g>
   <g id="patch_3">
    <path d="M 47.609375 390.536395 
L 47.609375 51.916562 
" style="fill: none; stroke: #000000; stroke-width: 0.8; stroke-linejoin: miter; stroke-linecap: square"/>
   </g>
   <g id="patch_4">
    <path d="M 711.128659 390.536395 
L 711.128659 51.916562 
" style="fill: none; stroke: #000000; stroke-width: 0.8; stroke-linejoin: miter; stroke-linecap: square"/>
   </g>
   <g id="patch_5">
    <path d="M 47.609375 390.536395 
L 711.128659 390.536395 
" style="fill: none; stroke: #000000; stroke-width: 0.8; stroke-linejoin: miter; stroke-linecap: square"/>
   </g>
   <g id="patch_6">
    <path d="M 47.609375 51.916562 
L 711.128659 51.916562 
" style="fill: none; stroke: #000000; stroke-width: 0.8; stroke-linejoin: miter; stroke-linecap: square"/>
   </g>
   <g id="text_15">
    <!-- Latency at percentile p (log axes) — lower is better -->
    <g style="fill: #696969" transform="translate(212.570892 42.440572) scale(0.13 -0.13)">
     <defs>
      <path id="DejaVuSans-78" d="M 3513 3500 
L 2247 1797 
L 3578 0 
L 2900 0 
L 1881 1375 
L 863 0 
L 184 0 
L 1544 1831 
L 300 3500 
L 978 3500 
L 1906 2253 
L 2834 3500 
L 3513 3500 
z
" transform="scale(0.015625)"/>
      <path id="DejaVuSans-2014" d="M 313 1978 
L 6088 1978 
L 6088 1528 
L 313 1528 
L 313 1978 
z
" transform="scale(0.015625)"/>
      <path id="DejaVuSans-77" d="M 269 3500 
L 844 3500 
L 1563 769 
L 2278 3500 
L 2956 3500 
L 3675 769 
L 4391 3500 
L 4966 3500 
L 4050 0 
L 3372 0 
L 2619 2869 
L 1863 0 
L 1184 0 
L 269 3500 
z
" transform="scale(0.015625)"/>
      <path id="DejaVuSans-62" d="M 3116 1747 
Q 3116 2381 2855 2742 
Q 2594 3103 2138 3103 
Q 1681 3103 1420 2742 
Q 1159 2381 1159 1747 
Q 1159 1113 1420 752 
Q 1681 391 2138 391 
Q 2594 391 2855 752 
Q 3116 1113 3116 1747 
z
M 1159 2969 
Q 1341 3281 1617 3432 
Q 1894 3584 2278 3584 
Q 2916 3584 3314 3078 
Q 3713 2572 3713 1747 
Q 3713 922 3314 415 
Q 2916 -91 2278 -91 
Q 1894 -91 1617 61 
Q 1341 213 1159 525 
L 1159 0 
L 581 0 
L 581 4863 
L 1159 4863 
L 1159 2969 
z
" transform="scale(0.015625)"/>
     </defs>
     <use xlink:href="#DejaVuSans-4c"/>
     <use xlink:href="#DejaVuSans-61" transform="translate(55.712891 0)"/>
     <use xlink:href="#DejaVuSans-74" transform="translate(116.992188 0)"/>
     <use xlink:href="#DejaVuSans-65" transform="translate(156.201172 0)"/>
     <use xlink:href="#DejaVuSans-6e" transform="translate(217.724609 0)"/>
     <use xlink:href="#DejaVuSans-63" transform="translate(281.103516 0)"/>
     <use xlink:href="#DejaVuSans-79" transform="translate(336.083984 0)"/>
     <use xlink:href="#DejaVuSans-20" transform="translate(395.263672 0)"/>
     <use xlink:href="#DejaVuSans-61" transform="translate(427.050781 0)"/>
     <use xlink:href="#DejaVuSans-74" transform="translate(488.330078 0)"/>
     <use xlink:href="#DejaVuSans-20" transform="translate(527.539062 0)"/>
     <use xlink:href="#DejaVuSans-70" transform="translate(559.326172 0)"/>
     <use xlink:href="#DejaVuSans-65" transform="translate(622.802734 0)"/>
     <use xlink:href="#DejaVuSans-72" transform="translate(684.326172 0)"/>
     <use xlink:href="#DejaVuSans-63" transform="translate(723.189453 0)"/>
     <use xlink:href="#DejaVuSans-65" transform="translate(778.169922 0)"/>
     <use xlink:href="#DejaVuSans-6e" transform="translate(839.693359 0)"/>
     <use xlink:href="#DejaVuSans-74" transform="translate(903.072266 0)"/>
     <use xlink:href="#DejaVuSans-69" transform="translate(942.28125 0)"/>
     <use xlink:href="#DejaVuSans-6c" transform="translate(970.064453 0)"/>
     <use xlink:href="#DejaVuSans-65" transform="translate(997.847656 0)"/>
     <use xlink:href="#DejaVuSans-20" transform="translate(1059.371094 0)"/>
     <use xlink:href="#DejaVuSans-70" transform="translate(1091.158203 0)"/>
     <use xlink:href="#DejaVuSans-20" transform="translate(1154.634766 0)"/>
     <use xlink:href="#DejaVuSans-28" transform="translate(1186.421875 0)"/>
     <use xlink:href="#DejaVuSans-6c" transform="translate(1225.435547 0)"/>
     <use xlink:href="#DejaVuSans-6f" transform="translate(1253.21875 0)"/>
     <use xlink:href="#DejaVuSans-67" transform="translate(1314.400391 0)"/>
     <use xlink:href="#DejaVuSans-20" transform="translate(1377.876953 0)"/>
     <use xlink:href="#DejaVuSans-61" transform="translate(1409.664062 0)"/>
     <use xlink:href="#DejaVuSans-78" transform="translate(1470.943359 0)"/>
     <use xlink:href="#DejaVuSans-65" transform="translate(1526.998047 0)"/>
     <use xlink:href="#DejaVuSans-73" transform="translate(1588.521484 0)"/>
     <use xlink:href="#DejaVuSans-29" transform="translate(1640.621094 0)"/>
     <use xlink:href="#DejaVuSans-20" transform="translate(1679.634766 0)"/>
     <use xlink:href="#DejaVuSans-2014" transform="translate(1711.421875 0)"/>
     <use xlink:href="#DejaVuSans-20" transform="translate(1811.421875 0)"/>
     <use xlink:href="#DejaVuSans-6c" transform="translate(1843.208984 0)"/>
     <use xlink:href="#DejaVuSans-6f" transform="translate(1870.992188 0)"/>
     <use xlink:href="#DejaVuSans-77" transform="translate(1932.173828 0)"/>
     <use xlink:href="#DejaVuSans-65" transform="translate(2013.960938 0)"/>
     <use xlink:href="#DejaVuSans-72" transform="translate(2075.484375 0)"/>
     <use xlink:href="#DejaVuSans-20" transform="translate(2116.597656 0)"/>
     <use xlink:href="#DejaVuSans-69" transform="translate(2148.384766 0)"/>
     <use xlink:href="#DejaVuSans-73" transform="translate(2176.167969 0)"/>
     <use xlink:href="#DejaVuSans-20" transform="translate(2228.267578 0)"/>
     <use xlink:href="#DejaVuSans-62" transform="translate(2260.054688 0)"/>
     <use xlink:href="#DejaVuSans-65" transform="translate(2323.53125 0)"/>
     <use xlink:href="#DejaVuSans-74" transform="translate(2385.054688 0)"/>
     <use xlink:href="#DejaVuSans-74" transform="translate(2424.263672 0)"/>
     <use xlink:href="#DejaVuSans-65" transform="translate(2463.472656 0)"/>
     <use xlink:href="#DejaVuSans-72" transform="translate(2524.996094 0)"/>
    </g>
   </g>
   <g id="text_16">
    <!-- Tail Latency — Get Hit @ 10M entries -->
    <g style="fill: #2f4f4f" transform="translate(174.798236 23.916562) scale(0.22 -0.22)">
     <defs>
      <path id="DejaVuSans-54" d="M -19 4666 
L 3928 4666 
L 3928 4134 
L 2272 4134 
L 2272 0 
L 1638 0 
L 1638 4134 
L -19 4134 
L -19 4666 
z
" transform="scale(0.015625)"/>
      <path id="DejaVuSans-47" d="M 3809 666 
L 3809 1919 
L 2778 1919 
L 2778 2438 
L 4434 2438 
L 4434 434 
Q 4069 175 3628 42 
Q 3188 -91 2688 -91 
Q 1594 -91 976 548 
Q 359 1188 359 2328 
Q 359 3472 976 4111 
Q 1594 4750 2688 4750 
Q 3144 4750 3555 4637 
Q 3966 4525 4313 4306 
L 4313 3634 
Q 3963 3931 3569 4081 
Q 3175 4231 2741 4231 
Q 1884 4231 1454 3753 
Q 1025 3275 1025 2328 
Q 1025 1384 1454 906 
Q 1884 428 2741 428 
Q 3075 428 3337 486 
Q 3600 544 3809 666 
z
" transform="scale(0.015625)"/>
      <path id="DejaVuSans-48" d="M 628 4666 
L 1259 4666 
L 1259 2753 
L 3553 2753 
L 3553 4666 
L 4184 4666 
L 4184 0 
L 3553 0 
L 3553 2222 
L 1259 2222 
L 1259 0 
L 628 0 
L 628 4666 
z
" transform="scale(0.015625)"/>
      <path id="DejaVuSans-40" d="M 2381 1678 
Q 2381 1231 2603 976 
Q 2825 722 3213 722 
Q 3597 722 3817 978 
Q 4038 1234 4038 1678 
Q 4038 2116 3813 2373 
Q 3588 2631 3206 2631 
Q 2828 2631 2604 2375 
Q 2381 2119 2381 1678 
z
M 4084 744 
Q 3897 503 3655 389 
Q 3413 275 3091 275 
Q 2553 275 2217 664 
Q 1881 1053 1881 1678 
Q 1881 2303 2218 2693 
Q 2556 3084 3091 3084 
Q 3413 3084 3656 2967 
Q 3900 2850 4084 2613 
L 4084 3022 
L 4531 3022 
L 4531 722 
Q 4988 791 5245 1139 
Q 5503 1488 5503 2041 
Q 5503 2375 5404 2669 
Q 5306 2963 5106 3213 
Q 4781 3622 4314 3839 
Q 3847 4056 3297 4056 
Q 2913 4056 2559 3954 
Q 2206 3853 1906 3653 
Q 1416 3334 1139 2817 
Q 863 2300 863 1697 
Q 863 1200 1042 765 
Q 1222 331 1563 0 
Q 1891 -325 2322 -495 
Q 2753 -666 3244 -666 
Q 3647 -666 4036 -530 
Q 4425 -394 4750 -141 
L 5031 -488 
Q 4641 -791 4180 -952 
Q 3719 -1113 3244 -1113 
Q 2666 -1113 2153 -908 
Q 1641 -703 1241 -313 
Q 841 78 631 592 
Q 422 1106 422 1697 
Q 422 2266 634 2781 
Q 847 3297 1241 3688 
Q 1644 4084 2172 4295 
Q 2700 4506 3291 4506 
Q 3953 4506 4520 4234 
Q 5088 3963 5472 3463 
Q 5706 3156 5829 2797 
Q 5953 2438 5953 2053 
Q 5953 1231 5456 756 
Q 4959 281 4084 263 
L 4084 744 
z
" transform="scale(0.015625)"/>
      <path id="DejaVuSans-4d" d="M 628 4666 
L 1569 4666 
L 2759 1491 
L 3956 4666 
L 4897 4666 
L 4897 0 
L 4281 0 
L 4281 4097 
L 3078 897 
L 2444 897 
L 1241 4097 
L 1241 0 
L 628 0 
L 628 4666 
z
" transform="scale(0.015625)"/>
     </defs>
     <use xlink:href="#DejaVuSans-54"/>
     <use xlink:href="#DejaVuSans-61" transform="translate(44.583984 0)"/>
     <use xlink:href="#DejaVuSans-69" transform="translate(105.863281 0)"/>
     <use xlink:href="#DejaVuSans-6c" transform="translate(133.646484 0)"/>
     <use xlink:href="#DejaVuSans-20" transform="translate(161.429688 0)"/>
     <use xlink:href="#DejaVuSans-4c" transform="translate(193.216797 0)"/>
     <use xlink:href="#DejaVuSans-61" transform="translate(248.929688 0)"/>
     <use xlink:href="#DejaVuSans-74" transform="translate(310.208984 0)"/>
     <use xlink:href="#DejaVuSans-65" transform="translate(349.417969 0)"/>
     <use xlink:href="#DejaVuSans-6e" transform="translate(410.941406 0)"/>
     <use xlink:href="#DejaVuSans-63" transform="translate(474.320312 0)"/>
     <use xlink:href="#DejaVuSans-79" transform="translate(529.300781 0)"/>
     <use xlink:href="#DejaVuSans-20" transform="translate(588.480469 0)"/>
     <use xlink:href="#DejaVuSans-2014" transform="translate(620.267578 0)"/>
     <use xlink:href="#DejaVuSans-20" transform="translate(720.267578 0)"/>
     <use xlink:href="#DejaVuSans-47" transform="translate(752.054688 0)"/>
     <use xlink:href="#DejaVuSans-65" transform="translate(829.544922 0)"/>
     <use xlink:href="#DejaVuSans-74" transform="translate(891.068359 0)"/>
     <use xlink:href="#DejaVuSans-20" transform="translate(930.277344 0)"/>
     <use xlink:href="#DejaVuSans-48" transform="translate(962.064453 0)"/>
     <use xlink:href="#DejaVuSans-69" transform="translate(1037.259766 0)"/>
     <use xlink:href="#DejaVuSans-74" transform="translate(1065.042969 0)"/>
     <use xlink:href="#DejaVuSans-20" transform="translate(1104.251953 0)"/>
     <use xlink:href="#DejaVuSans-40" transform="translate(1136.039062 0)"/>
     <use xlink:href="#DejaVuSans-20" transform="translate(1236.039062 0)"/>
     <use xlink:href="#DejaVuSans-31" transform="translate(1267.826172 0)"/>
     <use xlink:href="#DejaVuSans-30" transform="translate(1331.449219 0)"/>
     <use xlink:href="#DejaVuSans-4d" transform="translate(1395.072266 0)"/>
     <use xlink:href="#DejaVuSans-20" transform="translate(1481.351562 0)"/>
     <use xlink:href="#DejaVuSans-65" transform="translate(1513.138672 0)"/>
     <use xlink:href="#DejaVuSans-6e" transform="translate(1574.662109 0)"/>
     <use xlink:href="#DejaVuSans-74" transform="translate(1638.041016 0)"/>
     <use xlink:href="#DejaVuSans-72" transform="translate(1677.25 0)"/>
     <use xlink:href="#DejaVuSans-69" transform="translate(1718.363281 0)"/>
     <use xlink:href="#DejaVuSans-65" transform="translate(1746.146484 0)"/>
     <use xlink:href="#DejaVuSans-73" transform="translate(1807.669922 0)"/>
    </g>
   </g>
   <g id="legend_1">
    <g id="patch_7">
     <path d="M 56.009375 131.971562 
L 223.911875 131.971562 
Q 226.311875 131.971562 226.311875 129.571562 
L 226.311875 60.316562 
Q 226.311875 57.916562 223.911875 57.916562 
L 56.009375 57.916562 
Q 53.609375 57.916562 53.609375 60.316562 
L 53.609375 129.571562 
Q 53.609375 131.971562 56.009375 131.971562 
z
" style="fill: #ffffff; opacity: 0.8; stroke: #cccccc; stroke-linejoin: miter"/>
    </g>
    <g id="line2d_17">
     <path d="M 58.409375 67.634687 
L 70.409375 67.634687 
L 82.409375 67.634687 
" style="fill: none; stroke: #a6cee3; stroke-width: 2; stroke-linecap: square"/>
     <g>
      <use xlink:href="#mc0c1b22442" x="70.409375" y="67.634687" style="fill: #a6cee3; stroke: #a6cee3"/>
     </g>
    </g>
    <g id="text_17">
     <!-- std::HashMap -->
     <g transform="translate(92.009375 71.834687) scale(0.12 -0.12)">
      <defs>
       <path id="DejaVuSans-64" d="M 2906 2969 
L 2906 4863 
L 3481 4863 
L 3481 0 
L 2906 0 
L 2906 525 
Q 2725 213 2448 61 
Q 2172 -91 1784 -91 
Q 1150 -91 751 415 
Q 353 922 353 1747 
Q 353 2572 751 3078 
Q 1150 3584 1784 3584 
Q 2172 3584 2448 3432 
Q 2725 3281 2906 2969 
z
M 947 1747 
Q 947 1113 1208 752 
Q 1469 391 1925 391 
Q 2381 391 2643 752 
Q 2906 1113 2906 1747 
Q 2906 2381 2643 2742 
Q 2381 3103 1925 3103 
Q 1469 3103 1208 2742 
Q 947 2381 947 1747 
z
" transform="scale(0.015625)"/>
       <path id="DejaVuSans-3a" d="M 750 794 
L 1409 794 
L 1409 0 
L 750 0 
L 750 794 
z
M 750 3309 
L 1409 3309 
L 1409 2516 
L 750 2516 
L 750 3309 
z
" transform="scale(0.015625)"/>
       <path id="DejaVuSans-68" d="M 3513 2113 
L 3513 0 
L 2938 0 
L 2938 2094 
Q 2938 2591 2744 2837 
Q 2550 3084 2163 3084 
Q 1697 3084 1428 2787 
Q 1159 2491 1159 1978 
L 1159 0 
L 581 0 
L 581 4863 
L 1159 4863 
L 1159 2956 
Q 1366 3272 1645 3428 
Q 1925 3584 2291 3584 
Q 2894 3584 3203 3211 
Q 3513 2838 3513 2113 
z
" transform="scale(0.015625)"/>
      </defs>
      <use xlink:href="#DejaVuSans-73"/>
      <use xlink:href="#DejaVuSans-74" transform="translate(52.099609 0)"/>
      <use xlink:href="#DejaVuSans-64" transform="translate(91.308594 0)"/>
      <use xlink:href="#DejaVuSans-3a" transform="translate(154.785156 0)"/>
      <use xlink:href="#DejaVuSans-3a" transform="translate(188.476562 0)"/>
      <use xlink:href="#DejaVuSans-48" transform="translate(222.167969 0)"/>
      <use xlink:href="#DejaVuSans-61" transform="translate(297.363281 0)"/>
      <use xlink:href="#DejaVuSans-73" transform="translate(358.642578 0)"/>
      <use xlink:href="#DejaVuSans-68" transform="translate(410.742188 0)"/>
      <use xlink:href="#DejaVuSans-4d" transform="translate(474.121094 0)"/>
      <use xlink:href="#DejaVuSans-61" transform="translate(560.400391 0)"/>
      <use xlink:href="#DejaVuSans-70" transform="translate(621.679688 0)"/>
     </g>
    </g>
    <g id="line2d_18">
     <path d="M 58.409375 85.248437 
L 70.409375 85.248437 
L 82.409375 85.248437 
" style="fill: none; stroke: #1f78b4; stroke-width: 2; stroke-linecap: square"/>
     <g>
      <use xlink:href="#m67ba21417c" x="70.409375" y="85.248437" style="fill: #1f78b4; stroke: #1f78b4; stroke-linejoin: miter"/>
     </g>
    </g>
    <g id="text_18">
     <!-- hashbrown::HashMap -->
     <g transform="translate(92.009375 89.448437) scale(0.12 -0.12)">
      <use xlink:href="#DejaVuSans-68"/>
      <use xlink:href="#DejaVuSans-61" transform="translate(63.378906 0)"/>
      <use xlink:href="#DejaVuSans-73" transform="translate(124.658203 0)"/>
      <use xlink:href="#DejaVuSans-68" transform="translate(176.757812 0)"/>
      <use xlink:href="#DejaVuSans-62" transform="translate(240.136719 0)"/>
      <use xlink:href="#DejaVuSans-72" transform="translate(303.613281 0)"/>
      <use xlink:href="#DejaVuSans-6f" transform="translate(342.476562 0)"/>
      <use xlink:href="#DejaVuSans-77" transform="translate(403.658203 0)"/>
      <use xlink:href="#DejaVuSans-6e" transform="translate(485.445312 0)"/>
      <use xlink:href="#DejaVuSans-3a" transform="translate(548.824219 0)"/>
      <use xlink:href="#DejaVuSans-3a" transform="translate(582.515625 0)"/>
      <use xlink:href="#DejaVuSans-48" transform="translate(616.207031 0)"/>
      <use xlink:href="#DejaVuSans-61" transform="translate(691.402344 0)"/>
      <use xlink:href="#DejaVuSans-73" transform="translate(752.681641 0)"/>
      <use xlink:href="#DejaVuSans-68" transform="translate(804.78125 0)"/>
      <use xlink:href="#DejaVuSans-4d" transform="translate(868.160156 0)"/>
      <use xlink:href="#DejaVuSans-61" transform="translate(954.439453 0)"/>
      <use xlink:href="#DejaVuSans-70" transform="translate(1015.71875 0)"/>
     </g>
    </g>
    <g id="line2d_19">
     <path d="M 58.409375 102.862187 
L 70.409375 102.862187 
L 82.409375 102.862187 
" style="fill: none; stroke: #fdbf6f; stroke-width: 2; stroke-linecap: square"/>
     <g>
      <use xlink:href="#mcfe1fd0a11" x="70.409375" y="102.862187" style="fill: #fdbf6f; stroke: #fdbf6f; stroke-linejoin: miter"/>
     </g>
    </g>
    <g id="text_19">
     <!-- ElasticHashMap -->
     <g transform="translate(92.009375 107.062187) scale(0.12 -0.12)">
      <defs>
       <path id="DejaVuSans-45" d="M 628 4666 
L 3578 4666 
L 3578 4134 
L 1259 4134 
L 1259 2753 
L 3481 2753 
L 3481 2222 
L 1259 2222 
L 1259 531 
L 3634 531 
L 3634 0 
L 628 0 
L 628 4666 
z
" transform="scale(0.015625)"/>
      </defs>
      <use xlink:href="#DejaVuSans-45"/>
      <use xlink:href="#DejaVuSans-6c" transform="translate(63.183594 0)"/>
      <use xlink:href="#DejaVuSans-61" transform="translate(90.966797 0)"/>
      <use xlink:href="#DejaVuSans-73" transform="translate(152.246094 0)"/>
      <use xlink:href="#DejaVuSans-74" transform="translate(204.345703 0)"/>
      <use xlink:href="#DejaVuSans-69" transform="translate(243.554688 0)"/>
      <use xlink:href="#DejaVuSans-63" transform="translate(271.337891 0)"/>
      <use xlink:href="#DejaVuSans-48" transform="translate(326.318359 0)"/>
      <use xlink:href="#DejaVuSans-61" transform="translate(401.513672 0)"/>
      <use xlink:href="#DejaVuSans-73" transform="translate(462.792969 0)"/>
      <use xlink:href="#DejaVuSans-68" transform="translate(514.892578 0)"/>
      <use xlink:href="#DejaVuSans-4d" transform="translate(578.271484 0)"/>
      <use xlink:href="#DejaVuSans-61" transform="translate(664.550781 0)"/>
      <use xlink:href="#DejaVuSans-70" transform="translate(725.830078 0)"/>
     </g>
    </g>
    <g id="line2d_20">
     <path d="M 58.409375 120.475937 
L 70.409375 120.475937 
L 82.409375 120.475937 
" style="fill: none; stroke: #ff7f00; stroke-width: 2; stroke-linecap: square"/>
     <g>
      <use xlink:href="#m07e2188f26" x="70.409375" y="120.475937" style="fill: #ff7f00; stroke: #ff7f00; stroke-linejoin: miter"/>
     </g>
    </g>
    <g id="text_20">
     <!-- FunnelHashMap -->
     <g transform="translate(92.009375 124.675937) scale(0.12 -0.12)">
      <defs>
       <path id="DejaVuSans-46" d="M 628 4666 
L 3309 4666 
L 3309 4134 
L 1259 4134 
L 1259 2759 
L 3109 2759 
L 3109 2228 
L 1259 2228 
L 1259 0 
L 628 0 
L 628 4666 
z
" transform="scale(0.015625)"/>
       <path id="DejaVuSans-75" d="M 544 1381 
L 544 3500 
L 1119 3500 
L 1119 1403 
Q 1119 906 1312 657 
Q 1506 409 1894 409 
Q 2359 409 2629 706 
Q 2900 1003 2900 1516 
L 2900 3500 
L 3475 3500 
L 3475 0 
L 2900 0 
L 2900 538 
Q 2691 219 2414 64 
Q 2138 -91 1772 -91 
Q 1169 -91 856 284 
Q 544 659 544 1381 
z
M 1991 3584 
L 1991 3584 
z
" transform="scale(0.015625)"/>
      </defs>
      <use xlink:href="#DejaVuSans-46"/>
      <use xlink:href="#DejaVuSans-75" transform="translate(52.019531 0)"/>
      <use xlink:href="#DejaVuSans-6e" transform="translate(115.398438 0)"/>
      <use xlink:href="#DejaVuSans-6e" transform="translate(178.777344 0)"/>
      <use xlink:href="#DejaVuSans-65" transform="translate(242.15625 0)"/>
      <use xlink:href="#DejaVuSans-6c" transform="translate(303.679688 0)"/>
      <use xlink:href="#DejaVuSans-48" transform="translate(331.462891 0)"/>
      <use xlink:href="#DejaVuSans-61" transform="translate(406.658203 0)"/>
      <use xlink:href="#DejaVuSans-73" transform="translate(467.9375 0)"/>
      <use xlink:href="#DejaVuSans-68" transform="translate(520.037109 0)"/>
      <use xlink:href="#DejaVuSans-4d" transform="translate(583.416016 0)"/>
      <use xlink:href="#DejaVuSans-61" transform="translate(669.695312 0)"/>
      <use xlink:href="#DejaVuSans-70" transform="translate(730.974609 0)"/>
     </g>
    </g>
   </g>
  </g>
 </g>
 <defs>
  <clipPath id="p3fceb5ce72">
   <rect x="47.609375" y="51.916562" width="663.519284" height="338.619833"/>
  </clipPath>
 </defs>
</svg>
